<svg xmlns="http://www.w3.org/2000/svg" xmlns:xlink="http://www.w3.org/1999/xlink" width="500" zoomAndPan="magnify" viewBox="0 0 375 374.999991" height="500" preserveAspectRatio="xMidYMid meet" version="1.0"><defs><g/><clipPath id="71517b0f4d"><path d="M 37.5 37.5 L 337.5 37.5 L 337.5 337.5 L 37.5 337.5 Z M 37.5 37.5 " clip-rule="nonzero"/></clipPath><clipPath id="961a97370c"><path d="M 54.75 37.5 L 320.25 37.5 C 324.824219 37.5 329.210938 39.316406 332.449219 42.550781 C 335.683594 45.789062 337.5 50.175781 337.5 54.75 L 337.5 320.25 C 337.5 324.824219 335.683594 329.210938 332.449219 332.449219 C 329.210938 335.683594 324.824219 337.5 320.25 337.5 L 54.75 337.5 C 50.175781 337.5 45.789062 335.683594 42.550781 332.449219 C 39.316406 329.210938 37.5 324.824219 37.5 320.25 L 37.5 54.75 C 37.5 50.175781 39.316406 45.789062 42.550781 42.550781 C 45.789062 39.316406 50.175781 37.5 54.75 37.5 Z M 54.75 37.5 " clip-rule="nonzero"/></clipPath><clipPath id="4bcba8205d"><path d="M 98.824219 161.261719 L 275.824219 161.261719 L 275.824219 290.261719 L 98.824219 290.261719 Z M 98.824219 161.261719 " clip-rule="nonzero"/></clipPath></defs><rect x="-37.5" width="450" fill="#ffffff" y="-37.499999" height="449.999989" fill-opacity="1"/><rect x="-37.5" width="450" fill="#ffffff" y="-37.499999" height="449.999989" fill-opacity="1"/><g clip-path="url(#71517b0f4d)"><g clip-path="url(#961a97370c)"><path stroke-linecap="butt" transform="matrix(0.75, 0, 0, 0.75, 37.500002, 37.499998)" fill="none" stroke-linejoin="miter" d="M 22.999999 0.00000328333 L 377.000022 0.00000328333 C 383.098981 0.00000328333 388.947939 2.421878 393.265648 6.734379 C 397.578148 11.052087 400.000024 16.901046 400.000024 23.000005 L 400.000024 377.000028 C 400.000024 383.098987 397.578148 388.947945 393.265648 393.265654 C 388.947939 397.578154 383.098981 400.00003 377.000022 400.00003 L 22.999999 400.00003 C 16.90104 400.00003 11.052081 397.578154 6.734373 393.265654 C 2.421872 388.947945 -0.00000271667 383.098987 -0.00000271667 377.000028 L -0.00000271667 23.000005 C -0.00000271667 16.901046 2.421872 11.052087 6.734373 6.734379 C 11.052081 2.421878 16.90104 0.00000328333 22.999999 0.00000328333 Z M 22.999999 0.00000328333 " stroke="#000000" stroke-width="12" stroke-opacity="1" stroke-miterlimit="4"/></g></g><g clip-path="url(#4bcba8205d)"><path fill="#000000" d="M 270.105469 276.710938 C 270.105469 279.238281 268.019531 281.296875 265.339844 281.300781 L 187.316406 284.53125 L 109.179688 281.296875 C 106.621094 281.296875 104.535156 279.238281 104.535156 276.710938 L 104.535156 180.671875 C 104.535156 178.132812 106.621094 176.070312 109.179688 176.070312 L 112.589844 176.070312 L 112.589844 273.363281 C 112.789062 275.375 114.375 276.09375 115.589844 276.21875 C 115.847656 276.242188 141.699219 274.898438 161.777344 274.820312 C 178.175781 274.820312 186.945312 278.261719 187.3125 278.261719 C 187.691406 278.261719 196.457031 274.820312 213.378906 274.820312 C 232.929688 274.898438 258.785156 276.222656 259.039062 276.21875 C 260.9375 276.195312 261.984375 274.792969 262.042969 273.363281 L 262.042969 176.070312 L 265.460938 176.070312 C 268.019531 176.070312 270.105469 178.132812 270.105469 180.671875 Z M 179.734375 270.550781 C 175.332031 269.78125 169.226562 269.101562 161.230469 269.101562 C 150.304688 269.144531 137.523438 269.570312 128.195312 269.941406 C 137.378906 267.136719 150.394531 263.875 161.375 263.828125 C 169.867188 263.828125 175.882812 267.285156 179.734375 270.550781 Z M 118.300781 177.855469 C 124.5625 175.335938 146.394531 166.992188 161.203125 166.992188 C 175.632812 167.152344 182.574219 173.484375 184.464844 175.558594 L 184.464844 267.070312 C 179.871094 262.886719 172.214844 258.109375 161.226562 258.109375 C 145.480469 258.179688 126.394531 264.285156 118.300781 267.152344 Z M 246.460938 269.941406 C 237.0625 269.570312 224.113281 269.144531 212.859375 269.101562 C 205.179688 269.101562 199.257812 269.765625 194.941406 270.527344 C 198.808594 267.269531 204.847656 263.828125 213.390625 263.828125 C 224.304688 263.875 237.292969 267.140625 246.460938 269.941406 Z M 190.171875 175.558594 C 192.085938 173.46875 199.078125 167.152344 213.820312 166.988281 C 228.292969 166.988281 250.074219 175.332031 256.332031 177.855469 L 256.332031 267.152344 C 248.234375 264.285156 229.128906 258.179688 213.257812 258.109375 C 202.367188 258.109375 194.757812 262.878906 190.171875 267.054688 Z M 265.460938 170.355469 L 252.792969 170.355469 C 243.15625 166.785156 226.21875 161.277344 213.375 161.277344 C 199.117188 161.433594 191.007812 166.996094 187.371094 170.355469 L 187.257812 170.355469 C 183.589844 166.996094 175.394531 161.433594 160.820312 161.273438 C 148.285156 161.273438 131.429688 166.785156 121.832031 170.355469 L 109.179688 170.355469 C 103.472656 170.355469 98.824219 174.984375 98.824219 180.671875 L 98.824219 276.710938 C 98.824219 282.390625 103.472656 287.011719 109.054688 287.011719 C 109.0625 287.011719 187.203125 290.25 187.203125 290.25 C 187.238281 290.253906 187.28125 290.253906 187.316406 290.253906 C 187.359375 290.253906 187.394531 290.253906 187.4375 290.25 L 265.460938 287.011719 C 271.167969 287.011719 275.8125 282.390625 275.8125 276.710938 L 275.8125 180.671875 C 275.8125 174.980469 271.167969 170.355469 265.460938 170.355469 " fill-opacity="1" fill-rule="nonzero"/></g><g fill="#000000" fill-opacity="1"><g transform="translate(98.826135, 139.378806)"><g><path d="M 4.9375 0 L 4.9375 -12.6875 C 4.9375 -15.882812 5.554688 -18.34375 6.796875 -20.0625 C 8.035156 -21.78125 9.847656 -23 12.234375 -23.71875 L 12.3125 -24.015625 L 4.1875 -26.984375 L 4.1875 -28.953125 C 4.1875 -31.441406 4.921875 -33.722656 6.390625 -35.796875 C 7.859375 -37.867188 10.019531 -39.523438 12.875 -40.765625 C 15.738281 -42.015625 19.222656 -42.640625 23.328125 -42.640625 C 29.054688 -42.640625 33.617188 -41.304688 37.015625 -38.640625 C 40.410156 -35.984375 42.109375 -31.96875 42.109375 -26.59375 L 42.109375 0 L 30.703125 0 L 30.703125 -25.921875 C 30.703125 -28.453125 30.03125 -30.347656 28.6875 -31.609375 C 27.34375 -32.878906 25.457031 -33.515625 23.03125 -33.515625 C 20.644531 -33.515625 18.867188 -33.019531 17.703125 -32.03125 C 16.535156 -31.039062 15.929688 -29.835938 15.890625 -28.421875 L 22.640625 -25.3125 L 21.8125 -20.375 C 19.988281 -20.269531 18.617188 -19.609375 17.703125 -18.390625 C 16.796875 -17.171875 16.34375 -15.523438 16.34375 -13.453125 L 16.34375 0 Z M 4.9375 0 "/></g></g></g><g fill="#000000" fill-opacity="1"><g transform="translate(146.24928, 139.378806)"><g/></g></g><g fill="#000000" fill-opacity="1"><g transform="translate(164.17282, 139.378806)"><g><path d="M 22.421875 0.984375 C 16.742188 0.984375 12.460938 -0.28125 9.578125 -2.8125 C 6.691406 -5.34375 5.25 -9.039062 5.25 -13.90625 L 5.25 -16.953125 C 5.25 -19.023438 5.523438 -20.734375 6.078125 -22.078125 C 6.640625 -23.421875 7.320312 -24.648438 8.125 -25.765625 C 8.9375 -26.878906 9.609375 -27.878906 10.140625 -28.765625 C 10.671875 -29.648438 10.9375 -30.578125 10.9375 -31.546875 C 10.9375 -32.453125 10.707031 -33.09375 10.25 -33.46875 C 9.800781 -33.851562 9.25 -34.046875 8.59375 -34.046875 C 7.625 -34.046875 6.507812 -33.742188 5.25 -33.140625 L 3.421875 -40.28125 C 4.835938 -41.039062 6.367188 -41.554688 8.015625 -41.828125 C 9.660156 -42.109375 11.117188 -42.25 12.390625 -42.25 C 15.734375 -42.25 18.097656 -41.453125 19.484375 -39.859375 C 20.878906 -38.265625 21.578125 -36.125 21.578125 -33.4375 C 21.578125 -31.863281 21.347656 -30.484375 20.890625 -29.296875 C 20.441406 -28.109375 19.863281 -26.878906 19.15625 -25.609375 C 18.445312 -24.441406 17.835938 -23.351562 17.328125 -22.34375 C 16.816406 -21.332031 16.5625 -19.863281 16.5625 -17.9375 L 16.5625 -14.890625 C 16.5625 -12.410156 17.082031 -10.625 18.125 -9.53125 C 19.164062 -8.445312 20.625 -7.90625 22.5 -7.90625 C 26.394531 -7.90625 28.34375 -10.109375 28.34375 -14.515625 L 28.34375 -41.640625 L 39.671875 -41.640625 L 39.671875 -14.21875 C 39.671875 -9.195312 38.203125 -5.40625 35.265625 -2.84375 C 32.328125 -0.289062 28.046875 0.984375 22.421875 0.984375 Z M 22.421875 0.984375 "/></g></g></g><g fill="#000000" fill-opacity="1"><g transform="translate(209.16401, 139.378806)"><g/></g></g><g fill="#000000" fill-opacity="1"><g transform="translate(227.087551, 139.378806)"><g><path d="M 5.3125 0 L 5.3125 -24.703125 C 5.3125 -30.523438 6.859375 -34.96875 9.953125 -38.03125 C 13.046875 -41.101562 17.9375 -42.640625 24.625 -42.640625 C 31.363281 -42.640625 36.238281 -41.101562 39.25 -38.03125 C 42.269531 -34.96875 43.78125 -30.523438 43.78125 -24.703125 L 43.78125 0 L 32.453125 0 L 32.453125 -24.859375 C 32.453125 -27.535156 31.832031 -29.644531 30.59375 -31.1875 C 29.351562 -32.738281 27.3125 -33.515625 24.46875 -33.515625 C 21.6875 -33.515625 19.671875 -32.738281 18.421875 -31.1875 C 17.179688 -29.644531 16.5625 -27.535156 16.5625 -24.859375 L 16.5625 -18.234375 L 16.796875 -18.15625 C 17.753906 -20.132812 18.890625 -21.441406 20.203125 -22.078125 C 21.523438 -22.710938 23.378906 -23.03125 25.765625 -23.03125 L 27.515625 -23.03125 L 27.515625 -14.515625 L 25.765625 -14.515625 C 23.234375 -14.515625 21.304688 -14.082031 19.984375 -13.21875 C 18.671875 -12.363281 17.769531 -11.238281 17.28125 -9.84375 C 16.800781 -8.445312 16.5625 -6.890625 16.5625 -5.171875 L 16.5625 0 Z M 5.3125 0 "/></g></g></g></svg>