<svg xmlns="http://www.w3.org/2000/svg" xmlns:xlink="http://www.w3.org/1999/xlink" width="500" zoomAndPan="magnify" viewBox="0 0 375 374.999991" height="500" preserveAspectRatio="xMidYMid meet" version="1.0"><defs><clipPath id="658e10359a"><path d="M 37.5 37.5 L 337.5 37.5 L 337.5 337.5 L 37.5 337.5 Z M 37.5 37.5 " clip-rule="nonzero"/></clipPath><clipPath id="44b9542d1b"><path d="M 54.75 37.5 L 320.25 37.5 C 324.824219 37.5 329.210938 39.316406 332.449219 42.550781 C 335.683594 45.789062 337.5 50.175781 337.5 54.75 L 337.5 320.25 C 337.5 324.824219 335.683594 329.210938 332.449219 332.449219 C 329.210938 335.683594 324.824219 337.5 320.25 337.5 L 54.75 337.5 C 50.175781 337.5 45.789062 335.683594 42.550781 332.449219 C 39.316406 329.210938 37.5 324.824219 37.5 320.25 L 37.5 54.75 C 37.5 50.175781 39.316406 45.789062 42.550781 42.550781 C 45.789062 39.316406 50.175781 37.5 54.75 37.5 Z M 54.75 37.5 " clip-rule="nonzero"/></clipPath><clipPath id="5aa76da9de"><path d="M 93 92.859375 L 281.859375 92.859375 L 281.859375 281.859375 L 93 281.859375 Z M 93 92.859375 " clip-rule="nonzero"/></clipPath></defs><rect x="-37.5" width="450" fill="#ffffff" y="-37.499999" height="449.999989" fill-opacity="1"/><rect x="-37.5" width="450" fill="#ffffff" y="-37.499999" height="449.999989" fill-opacity="1"/><g clip-path="url(#658e10359a)"><g clip-path="url(#44b9542d1b)"><path stroke-linecap="butt" transform="matrix(0.75, 0, 0, 0.75, 37.500002, 37.499998)" fill="none" stroke-linejoin="miter" d="M 22.999999 0.00000328333 L 377.000022 0.00000328333 C 383.098981 0.00000328333 388.947939 2.421878 393.265648 6.734379 C 397.578148 11.052087 400.000024 16.901046 400.000024 23.000005 L 400.000024 377.000028 C 400.000024 383.098987 397.578148 388.947945 393.265648 393.265654 C 388.947939 397.578154 383.098981 400.00003 377.000022 400.00003 L 22.999999 400.00003 C 16.90104 400.00003 11.052081 397.578154 6.734373 393.265654 C 2.421872 388.947945 -0.00000271667 383.098987 -0.00000271667 377.000028 L -0.00000271667 23.000005 C -0.00000271667 16.901046 2.421872 11.052087 6.734373 6.734379 C 11.052081 2.421878 16.90104 0.00000328333 22.999999 0.00000328333 Z M 22.999999 0.00000328333 " stroke="#000000" stroke-width="12" stroke-opacity="1" stroke-miterlimit="4"/></g></g><g clip-path="url(#5aa76da9de)"><path fill="#000000" d="M 260.6875 92.859375 C 229.273438 92.859375 187.125 114.410156 158.816406 151.464844 L 135.351562 151.464844 C 118.394531 151.464844 108.679688 164.121094 101.988281 177.503906 L 93.027344 195.417969 L 135.351562 195.417969 L 179.304688 239.371094 L 179.304688 281.695312 L 197.21875 272.738281 C 210.601562 266.042969 223.257812 256.328125 223.257812 239.371094 L 223.257812 215.90625 C 260.3125 187.597656 281.863281 145.449219 281.863281 114.035156 L 281.863281 92.859375 Z M 223.257812 136.8125 C 231.351562 136.8125 237.910156 143.371094 237.910156 151.464844 C 237.910156 159.554688 231.351562 166.113281 223.257812 166.113281 C 215.167969 166.113281 208.609375 159.554688 208.609375 151.464844 C 208.609375 143.371094 215.167969 136.8125 223.257812 136.8125 Z M 128.027344 224.71875 L 120.699219 232.046875 C 110.121094 242.625 106.050781 268.671875 106.050781 268.671875 C 106.050781 268.671875 130.925781 265.773438 142.675781 254.023438 L 150.003906 246.695312 Z M 128.027344 224.71875 " fill-opacity="1" fill-rule="nonzero"/></g></svg>