<svg xmlns="http://www.w3.org/2000/svg" xmlns:xlink="http://www.w3.org/1999/xlink" width="500" zoomAndPan="magnify" viewBox="0 0 375 374.999991" height="500" preserveAspectRatio="xMidYMid meet" version="1.0"><defs><g/><clipPath id="f080b3c21a"><path d="M 37.5 37.5 L 337.5 37.5 L 337.5 337.5 L 37.5 337.5 Z M 37.5 37.5 " clip-rule="nonzero"/></clipPath><clipPath id="d8eeebbaa1"><path d="M 54.75 37.5 L 320.25 37.5 C 324.824219 37.5 329.210938 39.316406 332.449219 42.550781 C 335.683594 45.789062 337.5 50.175781 337.5 54.75 L 337.5 320.25 C 337.5 324.824219 335.683594 329.210938 332.449219 332.449219 C 329.210938 335.683594 324.824219 337.5 320.25 337.5 L 54.75 337.5 C 50.175781 337.5 45.789062 335.683594 42.550781 332.449219 C 39.316406 329.210938 37.5 324.824219 37.5 320.25 L 37.5 54.75 C 37.5 50.175781 39.316406 45.789062 42.550781 42.550781 C 45.789062 39.316406 50.175781 37.5 54.75 37.5 Z M 54.75 37.5 " clip-rule="nonzero"/></clipPath><clipPath id="6e1897ebd4"><path d="M 82 88 L 214.976562 88 L 214.976562 187.5 L 82 187.5 Z M 82 88 " clip-rule="nonzero"/></clipPath><clipPath id="734a3b2ba2"><path d="M 64.976562 72.75 L 198 72.75 L 198 173 L 64.976562 173 Z M 64.976562 72.75 " clip-rule="nonzero"/></clipPath></defs><rect x="-37.5" width="450" fill="#ffffff" y="-37.499999" height="449.999989" fill-opacity="1"/><rect x="-37.5" width="450" fill="#ffffff" y="-37.499999" height="449.999989" fill-opacity="1"/><g clip-path="url(#f080b3c21a)"><g clip-path="url(#d8eeebbaa1)"><path stroke-linecap="butt" transform="matrix(0.75, 0, 0, 0.75, 37.500002, 37.499998)" fill="none" stroke-linejoin="miter" d="M 22.999999 0.00000328333 L 377.000022 0.00000328333 C 383.098981 0.00000328333 388.947939 2.421878 393.265648 6.734379 C 397.578148 11.052087 400.000024 16.901046 400.000024 23.000005 L 400.000024 377.000028 C 400.000024 383.098987 397.578148 388.947945 393.265648 393.265654 C 388.947939 397.578154 383.098981 400.00003 377.000022 400.00003 L 22.999999 400.00003 C 16.90104 400.00003 11.052081 397.578154 6.734373 393.265654 C 2.421872 388.947945 -0.00000271667 383.098987 -0.00000271667 377.000028 L -0.00000271667 23.000005 C -0.00000271667 16.901046 2.421872 11.052087 6.734373 6.734379 C 11.052081 2.421878 16.90104 0.00000328333 22.999999 0.00000328333 Z M 22.999999 0.00000328333 " stroke="#000000" stroke-width="12" stroke-opacity="1" stroke-miterlimit="4"/></g></g><path fill="#000000" d="M 96.714844 175.671875 L 200.632812 175.671875 C 200.632812 175.671875 171.800781 116.996094 166.105469 115.867188 C 160.414062 114.742188 135.527344 154.992188 135.527344 154.992188 C 135.527344 154.992188 121.902344 129.320312 116.375 129.96875 C 110.851562 130.617188 96.714844 175.671875 96.714844 175.671875 Z M 96.714844 175.671875 " fill-opacity="1" fill-rule="nonzero"/><path fill="#000000" d="M 139.097656 109.542969 C 139.097656 110.179688 139.039062 110.8125 138.914062 111.4375 C 138.789062 112.058594 138.605469 112.667969 138.359375 113.253906 C 138.117188 113.84375 137.820312 114.402344 137.464844 114.933594 C 137.109375 115.460938 136.707031 115.953125 136.257812 116.402344 C 135.808594 116.855469 135.316406 117.257812 134.789062 117.609375 C 134.257812 117.964844 133.699219 118.261719 133.109375 118.507812 C 132.523438 118.75 131.914062 118.933594 131.289062 119.058594 C 130.664062 119.183594 130.035156 119.246094 129.398438 119.246094 C 128.761719 119.246094 128.128906 119.183594 127.503906 119.058594 C 126.878906 118.933594 126.273438 118.75 125.683594 118.507812 C 125.097656 118.261719 124.535156 117.964844 124.007812 117.609375 C 123.476562 117.257812 122.988281 116.855469 122.535156 116.402344 C 122.085938 115.953125 121.683594 115.460938 121.332031 114.933594 C 120.976562 114.402344 120.675781 113.84375 120.433594 113.253906 C 120.191406 112.667969 120.003906 112.058594 119.882812 111.4375 C 119.757812 110.8125 119.695312 110.179688 119.695312 109.542969 C 119.695312 108.90625 119.757812 108.273438 119.882812 107.648438 C 120.003906 107.023438 120.191406 106.417969 120.433594 105.828125 C 120.675781 105.242188 120.976562 104.683594 121.332031 104.152344 C 121.683594 103.621094 122.085938 103.132812 122.535156 102.683594 C 122.988281 102.230469 123.476562 101.828125 124.007812 101.476562 C 124.535156 101.121094 125.097656 100.824219 125.683594 100.578125 C 126.273438 100.335938 126.878906 100.152344 127.503906 100.027344 C 128.128906 99.902344 128.761719 99.839844 129.398438 99.839844 C 130.035156 99.839844 130.664062 99.902344 131.289062 100.027344 C 131.914062 100.152344 132.523438 100.335938 133.109375 100.578125 C 133.699219 100.824219 134.257812 101.121094 134.789062 101.476562 C 135.316406 101.828125 135.808594 102.230469 136.257812 102.683594 C 136.707031 103.132812 137.109375 103.621094 137.464844 104.152344 C 137.820312 104.683594 138.117188 105.242188 138.359375 105.828125 C 138.605469 106.417969 138.789062 107.023438 138.914062 107.648438 C 139.039062 108.273438 139.097656 108.90625 139.097656 109.542969 Z M 139.097656 109.542969 " fill-opacity="0.97" fill-rule="nonzero"/><g clip-path="url(#6e1897ebd4)"><path fill="#000000" d="M 82.359375 88.023438 L 82.359375 187.492188 L 214.984375 187.492188 L 214.984375 88.023438 Z M 90.648438 94.652344 L 206.695312 94.652344 L 206.695312 180.859375 L 90.648438 180.859375 Z M 90.648438 94.652344 " fill-opacity="1" fill-rule="nonzero"/></g><g clip-path="url(#734a3b2ba2)"><path fill="#000000" d="M 64.976562 72.765625 L 64.976562 172.234375 L 78.238281 172.234375 L 78.238281 165.601562 L 73.265625 165.601562 L 73.265625 79.394531 L 189.3125 79.394531 L 189.3125 84.488281 L 197.605469 84.488281 L 197.605469 72.765625 Z M 64.976562 72.765625 " fill-opacity="1" fill-rule="nonzero"/></g><g fill="#000000" fill-opacity="1"><g transform="translate(180.471115, 278.183595)"><g><path d="M 12.203125 0.5625 C 8.992188 0.5625 6.519531 -0.203125 4.78125 -1.734375 C 3.050781 -3.265625 2.1875 -5.410156 2.1875 -8.171875 C 2.1875 -11.160156 3.257812 -13.550781 5.40625 -15.34375 C 7.550781 -17.132812 10.9375 -18.21875 15.5625 -18.59375 L 21.390625 -19.046875 L 21.390625 -19.9375 C 21.390625 -21.726562 20.90625 -23.015625 19.9375 -23.796875 C 18.96875 -24.578125 17.472656 -24.96875 15.453125 -24.96875 C 13.515625 -24.96875 11.617188 -24.675781 9.765625 -24.09375 C 7.921875 -23.519531 6.328125 -22.84375 4.984375 -22.0625 L 4.984375 -29.015625 C 6.066406 -29.535156 7.597656 -30.066406 9.578125 -30.609375 C 11.554688 -31.148438 13.832031 -31.421875 16.40625 -31.421875 C 17.75 -31.421875 19.019531 -31.316406 20.21875 -31.109375 C 21.414062 -30.898438 22.441406 -30.515625 23.296875 -29.953125 C 24.191406 -30.703125 24.660156 -31.617188 24.703125 -32.703125 L 32.03125 -32.703125 C 32.03125 -31.359375 31.710938 -30.085938 31.078125 -28.890625 C 30.441406 -27.703125 29.4375 -26.695312 28.0625 -25.875 C 28.613281 -25.125 29.007812 -24.222656 29.25 -23.171875 C 29.5 -22.128906 29.625 -20.9375 29.625 -19.59375 L 29.625 0 L 21.390625 0 L 21.390625 -12.984375 L 16.515625 -12.484375 C 14.273438 -12.265625 12.71875 -11.816406 11.84375 -11.140625 C 10.96875 -10.472656 10.53125 -9.578125 10.53125 -8.453125 C 10.53125 -7.335938 10.882812 -6.5 11.59375 -5.9375 C 12.300781 -5.375 13.253906 -5.09375 14.453125 -5.09375 C 14.898438 -5.09375 15.347656 -5.140625 15.796875 -5.234375 C 16.242188 -5.328125 16.65625 -5.429688 17.03125 -5.546875 L 17.75 -0.28125 C 17.039062 -0.0195312 16.203125 0.179688 15.234375 0.328125 C 14.265625 0.484375 13.253906 0.5625 12.203125 0.5625 Z M 12.203125 0.5625 "/></g></g></g><g fill="#000000" fill-opacity="1"><g transform="translate(214.178403, 278.183595)"><g><path d="M 12.09375 0.734375 C 10.1875 0.734375 8.394531 0.515625 6.71875 0.078125 C 5.039062 -0.347656 3.472656 -0.953125 2.015625 -1.734375 L 4.25 -7.84375 C 5.070312 -7.351562 6.0625 -6.921875 7.21875 -6.546875 C 8.375 -6.171875 9.515625 -5.984375 10.640625 -5.984375 C 12.734375 -5.984375 14.394531 -6.773438 15.625 -8.359375 C 16.851562 -9.953125 17.46875 -12.335938 17.46875 -15.515625 C 17.46875 -18.460938 16.851562 -20.726562 15.625 -22.3125 C 14.394531 -23.90625 12.472656 -24.703125 9.859375 -24.703125 C 8.628906 -24.703125 7.359375 -24.519531 6.046875 -24.15625 C 4.742188 -23.800781 3.660156 -23.363281 2.796875 -22.84375 L 2.796875 -29.734375 C 3.953125 -30.253906 5.257812 -30.664062 6.71875 -30.96875 C 8.175781 -31.269531 9.726562 -31.421875 11.375 -31.421875 C 16.519531 -31.421875 20.25 -30.007812 22.5625 -27.1875 C 24.882812 -24.363281 26.046875 -20.472656 26.046875 -15.515625 C 26.046875 -10.171875 24.832031 -6.125 22.40625 -3.375 C 19.976562 -0.632812 16.539062 0.734375 12.09375 0.734375 Z M 12.09375 0.734375 "/></g></g></g><g fill="#000000" fill-opacity="1"><g transform="translate(244.247717, 278.183595)"><g><path d="M -12.59375 -34.9375 C -14.351562 -34.9375 -15.734375 -35.195312 -16.734375 -35.71875 C -17.742188 -36.25 -18.460938 -36.914062 -18.890625 -37.71875 C -19.328125 -38.519531 -19.546875 -39.367188 -19.546875 -40.265625 C -19.546875 -41.679688 -19.171875 -43.046875 -18.421875 -44.359375 L -12.3125 -43.5625 C -12.5 -43.007812 -12.59375 -42.488281 -12.59375 -42 C -12.59375 -41.476562 -12.429688 -41.078125 -12.109375 -40.796875 C -11.796875 -40.515625 -11.269531 -40.375 -10.53125 -40.375 L 1.515625 -40.375 L 1.515625 -34.9375 Z M -12.59375 -34.9375 "/></g></g></g><g fill="#000000" fill-opacity="1"><g transform="translate(242.95838, 278.183595)"><g><path d="M 12.203125 0.5625 C 8.992188 0.5625 6.519531 -0.203125 4.78125 -1.734375 C 3.050781 -3.265625 2.1875 -5.410156 2.1875 -8.171875 C 2.1875 -11.160156 3.257812 -13.550781 5.40625 -15.34375 C 7.550781 -17.132812 10.9375 -18.21875 15.5625 -18.59375 L 21.390625 -19.046875 L 21.390625 -19.9375 C 21.390625 -21.726562 20.90625 -23.015625 19.9375 -23.796875 C 18.96875 -24.578125 17.472656 -24.96875 15.453125 -24.96875 C 13.515625 -24.96875 11.617188 -24.675781 9.765625 -24.09375 C 7.921875 -23.519531 6.328125 -22.84375 4.984375 -22.0625 L 4.984375 -29.015625 C 6.066406 -29.535156 7.597656 -30.066406 9.578125 -30.609375 C 11.554688 -31.148438 13.832031 -31.421875 16.40625 -31.421875 C 17.75 -31.421875 19.019531 -31.316406 20.21875 -31.109375 C 21.414062 -30.898438 22.441406 -30.515625 23.296875 -29.953125 C 24.191406 -30.703125 24.660156 -31.617188 24.703125 -32.703125 L 32.03125 -32.703125 C 32.03125 -31.359375 31.710938 -30.085938 31.078125 -28.890625 C 30.441406 -27.703125 29.4375 -26.695312 28.0625 -25.875 C 28.613281 -25.125 29.007812 -24.222656 29.25 -23.171875 C 29.5 -22.128906 29.625 -20.9375 29.625 -19.59375 L 29.625 0 L 21.390625 0 L 21.390625 -12.984375 L 16.515625 -12.484375 C 14.273438 -12.265625 12.71875 -11.816406 11.84375 -11.140625 C 10.96875 -10.472656 10.53125 -9.578125 10.53125 -8.453125 C 10.53125 -7.335938 10.882812 -6.5 11.59375 -5.9375 C 12.300781 -5.375 13.253906 -5.09375 14.453125 -5.09375 C 14.898438 -5.09375 15.347656 -5.140625 15.796875 -5.234375 C 16.242188 -5.328125 16.65625 -5.429688 17.03125 -5.546875 L 17.75 -0.28125 C 17.039062 -0.0195312 16.203125 0.179688 15.234375 0.328125 C 14.265625 0.484375 13.253906 0.5625 12.203125 0.5625 Z M 12.203125 0.5625 "/></g></g></g><g fill="#000000" fill-opacity="1"><g transform="translate(276.665669, 278.183595)"><g><path d="M 14.953125 0.5625 C 11.929688 0.5625 9.523438 -0.0976562 7.734375 -1.421875 C 5.941406 -2.753906 4.648438 -4.585938 3.859375 -6.921875 C 3.078125 -9.253906 2.6875 -11.929688 2.6875 -14.953125 C 2.6875 -18.203125 3.050781 -20.898438 3.78125 -23.046875 C 4.507812 -25.191406 5.546875 -26.867188 6.890625 -28.078125 C 8.234375 -29.296875 9.828125 -30.15625 11.671875 -30.65625 C 13.523438 -31.164062 15.550781 -31.421875 17.75 -31.421875 C 21.070312 -31.421875 23.75 -30.953125 25.78125 -30.015625 C 27.820312 -29.078125 29.296875 -27.75 30.203125 -26.03125 C 31.117188 -24.320312 31.578125 -22.304688 31.578125 -19.984375 L 31.578125 0 L 23.1875 0 L 23.1875 -19.3125 C 23.1875 -21.070312 22.765625 -22.410156 21.921875 -23.328125 C 21.078125 -24.242188 19.6875 -24.703125 17.75 -24.703125 C 16.445312 -24.703125 15.300781 -24.429688 14.3125 -23.890625 C 13.320312 -23.347656 12.554688 -22.382812 12.015625 -21 C 11.472656 -19.613281 11.203125 -17.632812 11.203125 -15.0625 C 11.203125 -12.414062 11.59375 -10.269531 12.375 -8.625 C 13.15625 -6.976562 14.519531 -6.15625 16.46875 -6.15625 C 17.289062 -6.15625 18.035156 -6.25 18.703125 -6.4375 L 19.484375 -0.171875 C 18.890625 0.0859375 18.171875 0.273438 17.328125 0.390625 C 16.492188 0.503906 15.703125 0.5625 14.953125 0.5625 Z M 14.953125 0.5625 "/></g></g></g><g fill="#000000" fill-opacity="1"><g transform="translate(311.382566, 277.959612)"><g><path d="M -30.078125 -34.9375 L -30.078125 -38.46875 L -24.421875 -40.828125 L -11.59375 -40.828125 L -11.59375 -44.6875 L -4.421875 -44.6875 L -4.421875 -34.9375 Z M -30.078125 -34.9375 "/></g></g></g><path stroke-linecap="butt" transform="matrix(0.75, 0, 0, 0.75, 94.209586, 210.267291)" fill="none" stroke-linejoin="miter" d="M 7.501802 -0.00222132 L 7.501802 49.555074 C 7.501802 56.180074 12.871594 61.555074 19.501803 61.555074 L 76.24139 61.555074 " stroke="#000000" stroke-width="15" stroke-opacity="1" stroke-miterlimit="4"/><path stroke-linecap="round" transform="matrix(0.75, 0, 0, 0.75, 94.209586, 210.267291)" fill="none" stroke-linejoin="round" d="M 46.241388 39.055073 L 76.24139 61.555074 L 46.241388 84.055076 " stroke="#000000" stroke-width="15" stroke-opacity="1" stroke-miterlimit="4"/></svg>