<svg xmlns="http://www.w3.org/2000/svg" xmlns:xlink="http://www.w3.org/1999/xlink" width="500" zoomAndPan="magnify" viewBox="0 0 375 374.999991" height="500" preserveAspectRatio="xMidYMid meet" version="1.0"><defs><g/><clipPath id="7e8aa6cbc0"><path d="M 37.5 37.5 L 337.5 37.5 L 337.5 337.5 L 37.5 337.5 Z M 37.5 37.5 " clip-rule="nonzero"/></clipPath><clipPath id="5240bed026"><path d="M 54.75 37.5 L 320.25 37.5 C 324.824219 37.5 329.210938 39.316406 332.449219 42.550781 C 335.683594 45.789062 337.5 50.175781 337.5 54.75 L 337.5 320.25 C 337.5 324.824219 335.683594 329.210938 332.449219 332.449219 C 329.210938 335.683594 324.824219 337.5 320.25 337.5 L 54.75 337.5 C 50.175781 337.5 45.789062 335.683594 42.550781 332.449219 C 39.316406 329.210938 37.5 324.824219 37.5 320.25 L 37.5 54.75 C 37.5 50.175781 39.316406 45.789062 42.550781 42.550781 C 45.789062 39.316406 50.175781 37.5 54.75 37.5 Z M 54.75 37.5 " clip-rule="nonzero"/></clipPath><clipPath id="29b0519c10"><path d="M 100.554688 221.515625 L 121.125 221.515625 L 121.125 242.089844 L 100.554688 242.089844 Z M 100.554688 221.515625 " clip-rule="nonzero"/></clipPath><clipPath id="bd0f97ccdc"><path d="M 110.839844 221.515625 C 105.160156 221.515625 100.554688 226.121094 100.554688 231.804688 C 100.554688 237.484375 105.160156 242.089844 110.839844 242.089844 C 116.519531 242.089844 121.125 237.484375 121.125 231.804688 C 121.125 226.121094 116.519531 221.515625 110.839844 221.515625 Z M 110.839844 221.515625 " clip-rule="nonzero"/></clipPath><clipPath id="7a924446b1"><path d="M 100.554688 247.109375 L 121.125 247.109375 L 121.125 267.683594 L 100.554688 267.683594 Z M 100.554688 247.109375 " clip-rule="nonzero"/></clipPath><clipPath id="a7e8ce180b"><path d="M 110.839844 247.109375 C 105.160156 247.109375 100.554688 251.714844 100.554688 257.398438 C 100.554688 263.078125 105.160156 267.683594 110.839844 267.683594 C 116.519531 267.683594 121.125 263.078125 121.125 257.398438 C 121.125 251.714844 116.519531 247.109375 110.839844 247.109375 Z M 110.839844 247.109375 " clip-rule="nonzero"/></clipPath><clipPath id="7cdb6ebcbe"><path d="M 100.554688 272.933594 L 121.125 272.933594 L 121.125 293.507812 L 100.554688 293.507812 Z M 100.554688 272.933594 " clip-rule="nonzero"/></clipPath><clipPath id="7dcb9772f8"><path d="M 110.839844 272.933594 C 105.160156 272.933594 100.554688 277.539062 100.554688 283.21875 C 100.554688 288.902344 105.160156 293.507812 110.839844 293.507812 C 116.519531 293.507812 121.125 288.902344 121.125 283.21875 C 121.125 277.539062 116.519531 272.933594 110.839844 272.933594 Z M 110.839844 272.933594 " clip-rule="nonzero"/></clipPath><clipPath id="7ce36e28bc"><path d="M 126.796875 247.109375 L 147.367188 247.109375 L 147.367188 267.683594 L 126.796875 267.683594 Z M 126.796875 247.109375 " clip-rule="nonzero"/></clipPath><clipPath id="a349651fac"><path d="M 137.082031 247.109375 C 131.402344 247.109375 126.796875 251.714844 126.796875 257.398438 C 126.796875 263.078125 131.402344 267.683594 137.082031 267.683594 C 142.761719 267.683594 147.367188 263.078125 147.367188 257.398438 C 147.367188 251.714844 142.761719 247.109375 137.082031 247.109375 Z M 137.082031 247.109375 " clip-rule="nonzero"/></clipPath><clipPath id="3baf528dd5"><path d="M 165.523438 272.933594 L 186.09375 272.933594 L 186.09375 293.507812 L 165.523438 293.507812 Z M 165.523438 272.933594 " clip-rule="nonzero"/></clipPath><clipPath id="2698c5af78"><path d="M 175.808594 272.933594 C 170.128906 272.933594 165.523438 277.539062 165.523438 283.21875 C 165.523438 288.902344 170.128906 293.507812 175.808594 293.507812 C 181.492188 293.507812 186.09375 288.902344 186.09375 283.21875 C 186.09375 277.539062 181.492188 272.933594 175.808594 272.933594 Z M 175.808594 272.933594 " clip-rule="nonzero"/></clipPath><clipPath id="8734867d5d"><path d="M 186.09375 247.109375 L 206.667969 247.109375 L 206.667969 267.683594 L 186.09375 267.683594 Z M 186.09375 247.109375 " clip-rule="nonzero"/></clipPath><clipPath id="bb326570fa"><path d="M 196.382812 247.109375 C 190.699219 247.109375 186.09375 251.714844 186.09375 257.398438 C 186.09375 263.078125 190.699219 267.683594 196.382812 267.683594 C 202.0625 267.683594 206.667969 263.078125 206.667969 257.398438 C 206.667969 251.714844 202.0625 247.109375 196.382812 247.109375 Z M 196.382812 247.109375 " clip-rule="nonzero"/></clipPath><clipPath id="c96fa33022"><path d="M 186.09375 221.515625 L 206.667969 221.515625 L 206.667969 242.089844 L 186.09375 242.089844 Z M 186.09375 221.515625 " clip-rule="nonzero"/></clipPath><clipPath id="e7f3ce5518"><path d="M 196.382812 221.515625 C 190.699219 221.515625 186.09375 226.121094 186.09375 231.804688 C 186.09375 237.484375 190.699219 242.089844 196.382812 242.089844 C 202.0625 242.089844 206.667969 237.484375 206.667969 231.804688 C 206.667969 226.121094 202.0625 221.515625 196.382812 221.515625 Z M 196.382812 221.515625 " clip-rule="nonzero"/></clipPath><clipPath id="fcedb1f8ef"><path d="M 227.253906 247.109375 L 247.824219 247.109375 L 247.824219 267.683594 L 227.253906 267.683594 Z M 227.253906 247.109375 " clip-rule="nonzero"/></clipPath><clipPath id="f924e72227"><path d="M 237.539062 247.109375 C 231.859375 247.109375 227.253906 251.714844 227.253906 257.398438 C 227.253906 263.078125 231.859375 267.683594 237.539062 267.683594 C 243.21875 267.683594 247.824219 263.078125 247.824219 257.398438 C 247.824219 251.714844 243.21875 247.109375 237.539062 247.109375 Z M 237.539062 247.109375 " clip-rule="nonzero"/></clipPath><clipPath id="b43846241b"><path d="M 227.253906 221.515625 L 247.824219 221.515625 L 247.824219 242.089844 L 227.253906 242.089844 Z M 227.253906 221.515625 " clip-rule="nonzero"/></clipPath><clipPath id="2b7785a60e"><path d="M 237.539062 221.515625 C 231.859375 221.515625 227.253906 226.121094 227.253906 231.804688 C 227.253906 237.484375 231.859375 242.089844 237.539062 242.089844 C 243.21875 242.089844 247.824219 237.484375 247.824219 231.804688 C 247.824219 226.121094 243.21875 221.515625 237.539062 221.515625 Z M 237.539062 221.515625 " clip-rule="nonzero"/></clipPath><clipPath id="0062cd9ade"><path d="M 253.875 221.515625 L 274.445312 221.515625 L 274.445312 242.089844 L 253.875 242.089844 Z M 253.875 221.515625 " clip-rule="nonzero"/></clipPath><clipPath id="9c8644648b"><path d="M 264.160156 221.515625 C 258.480469 221.515625 253.875 226.121094 253.875 231.804688 C 253.875 237.484375 258.480469 242.089844 264.160156 242.089844 C 269.839844 242.089844 274.445312 237.484375 274.445312 231.804688 C 274.445312 226.121094 269.839844 221.515625 264.160156 221.515625 Z M 264.160156 221.515625 " clip-rule="nonzero"/></clipPath><clipPath id="4090f69a3c"><path d="M 253.824219 247.109375 L 274.398438 247.109375 L 274.398438 267.683594 L 253.824219 267.683594 Z M 253.824219 247.109375 " clip-rule="nonzero"/></clipPath><clipPath id="cfee9952f3"><path d="M 264.113281 247.109375 C 258.429688 247.109375 253.824219 251.714844 253.824219 257.398438 C 253.824219 263.078125 258.429688 267.683594 264.113281 267.683594 C 269.792969 267.683594 274.398438 263.078125 274.398438 257.398438 C 274.398438 251.714844 269.792969 247.109375 264.113281 247.109375 Z M 264.113281 247.109375 " clip-rule="nonzero"/></clipPath></defs><rect x="-37.5" width="450" fill="#ffffff" y="-37.499999" height="449.999989" fill-opacity="1"/><rect x="-37.5" width="450" fill="#ffffff" y="-37.499999" height="449.999989" fill-opacity="1"/><g clip-path="url(#7e8aa6cbc0)"><g clip-path="url(#5240bed026)"><path stroke-linecap="butt" transform="matrix(0.75, 0, 0, 0.75, 37.500002, 37.499998)" fill="none" stroke-linejoin="miter" d="M 22.999999 0.00000328333 L 377.000022 0.00000328333 C 383.098981 0.00000328333 388.947939 2.421878 393.265648 6.734379 C 397.578148 11.052087 400.000024 16.901046 400.000024 23.000005 L 400.000024 377.000028 C 400.000024 383.098987 397.578148 388.947945 393.265648 393.265654 C 388.947939 397.578154 383.098981 400.00003 377.000022 400.00003 L 22.999999 400.00003 C 16.90104 400.00003 11.052081 397.578154 6.734373 393.265654 C 2.421872 388.947945 -0.00000271667 383.098987 -0.00000271667 377.000028 L -0.00000271667 23.000005 C -0.00000271667 16.901046 2.421872 11.052087 6.734373 6.734379 C 11.052081 2.421878 16.90104 0.00000328333 22.999999 0.00000328333 Z M 22.999999 0.00000328333 " stroke="#000000" stroke-width="12" stroke-opacity="1" stroke-miterlimit="4"/></g></g><path stroke-linecap="butt" transform="matrix(0.75, 0, 0, 0.75, 197.786168, 132.985186)" fill="none" stroke-linejoin="miter" d="M -0.00134942 7.498919 L 64.243446 7.498919 C 70.868447 7.498919 76.243447 12.873919 76.243447 19.498919 L 76.243447 61.556214 " stroke="#000000" stroke-width="15" stroke-opacity="1" stroke-miterlimit="4"/><path stroke-linecap="round" transform="matrix(0.75, 0, 0, 0.75, 197.786168, 132.985186)" fill="none" stroke-linejoin="round" d="M 98.743449 31.556212 L 76.243447 61.556214 L 53.743446 31.556212 " stroke="#000000" stroke-width="15" stroke-opacity="1" stroke-miterlimit="4"/><g clip-path="url(#29b0519c10)"><g clip-path="url(#bd0f97ccdc)"><path fill="#000000" d="M 100.554688 221.515625 L 121.125 221.515625 L 121.125 242.089844 L 100.554688 242.089844 Z M 100.554688 221.515625 " fill-opacity="1" fill-rule="nonzero"/></g></g><g fill="#000000" fill-opacity="1"><g transform="translate(74.599644, 171.752382)"><g><path d="M 23.578125 1.1875 C 19.984375 1.1875 16.375 0.789062 12.75 0 C 9.125 -0.789062 5.910156 -1.914062 3.109375 -3.375 L 6.953125 -14.25 C 8.773438 -13.28125 11.117188 -12.257812 13.984375 -11.1875 C 16.847656 -10.125 19.863281 -9.59375 23.03125 -9.59375 C 27.96875 -9.59375 30.4375 -11.023438 30.4375 -13.890625 C 30.4375 -15.472656 29.503906 -16.707031 27.640625 -17.59375 C 25.785156 -18.476562 23.210938 -19.5 19.921875 -20.65625 C 16.691406 -21.75 13.921875 -22.96875 11.609375 -24.3125 C 9.296875 -25.65625 7.515625 -27.300781 6.265625 -29.25 C 5.015625 -31.195312 4.390625 -33.660156 4.390625 -36.640625 C 4.390625 -41.640625 6.257812 -45.328125 10 -47.703125 C 13.75 -50.078125 18.765625 -51.265625 25.046875 -51.265625 C 28.453125 -51.265625 31.523438 -50.972656 34.265625 -50.390625 C 37.015625 -49.816406 39.148438 -49.132812 40.671875 -48.34375 L 40.671875 -37.5625 C 39.085938 -38.289062 36.847656 -39.003906 33.953125 -39.703125 C 31.054688 -40.410156 28.300781 -40.765625 25.6875 -40.765625 C 20.625 -40.765625 18.09375 -39.484375 18.09375 -36.921875 C 18.09375 -35.460938 19.082031 -34.320312 21.0625 -33.5 C 23.039062 -32.675781 25.828125 -31.65625 29.421875 -30.4375 C 34.179688 -28.789062 37.820312 -26.804688 40.34375 -24.484375 C 42.875 -22.171875 44.140625 -18.882812 44.140625 -14.625 C 44.140625 -11.882812 43.515625 -9.3125 42.265625 -6.90625 C 41.015625 -4.5 38.894531 -2.546875 35.90625 -1.046875 C 32.925781 0.441406 28.816406 1.1875 23.578125 1.1875 Z M 23.578125 1.1875 "/></g></g></g><g fill="#000000" fill-opacity="1"><g transform="translate(122.946994, 171.752382)"><g><path d="M -20.5625 -57.03125 C -23.425781 -57.03125 -25.679688 -57.457031 -27.328125 -58.3125 C -28.972656 -59.164062 -30.144531 -60.242188 -30.84375 -61.546875 C -31.539062 -62.859375 -31.890625 -64.242188 -31.890625 -65.703125 C -31.890625 -68.023438 -31.28125 -70.25 -30.0625 -72.375 L -20.109375 -71.109375 C -20.410156 -70.191406 -20.5625 -69.335938 -20.5625 -68.546875 C -20.5625 -67.691406 -20.300781 -67.035156 -19.78125 -66.578125 C -19.269531 -66.117188 -18.40625 -65.890625 -17.1875 -65.890625 L 2.46875 -65.890625 L 2.46875 -57.03125 Z M -20.5625 -57.03125 "/></g></g></g><g fill="#000000" fill-opacity="1"><g transform="translate(121.939272, 171.752382)"><g><path d="M 5.9375 0 L 5.9375 -15.265625 C 5.9375 -19.097656 6.679688 -22.050781 8.171875 -24.125 C 9.671875 -26.195312 11.851562 -27.660156 14.71875 -28.515625 L 14.8125 -28.875 L 5.03125 -32.4375 L 5.03125 -34.8125 C 5.03125 -37.800781 5.910156 -40.546875 7.671875 -43.046875 C 9.441406 -45.546875 12.046875 -47.539062 15.484375 -49.03125 C 18.929688 -50.519531 23.125 -51.265625 28.0625 -51.265625 C 34.945312 -51.265625 40.425781 -49.664062 44.5 -46.46875 C 48.582031 -43.269531 50.625 -38.441406 50.625 -31.984375 L 50.625 0 L 36.921875 0 L 36.921875 -31.171875 C 36.921875 -34.210938 36.113281 -36.492188 34.5 -38.015625 C 32.882812 -39.535156 30.613281 -40.296875 27.6875 -40.296875 C 24.820312 -40.296875 22.6875 -39.703125 21.28125 -38.515625 C 19.882812 -37.328125 19.15625 -35.882812 19.09375 -34.1875 L 27.234375 -30.4375 L 26.234375 -24.5 C 24.035156 -24.375 22.390625 -23.578125 21.296875 -22.109375 C 20.203125 -20.648438 19.65625 -18.671875 19.65625 -16.171875 L 19.65625 0 Z M 5.9375 0 "/></g></g></g><g clip-path="url(#7a924446b1)"><g clip-path="url(#a7e8ce180b)"><path fill="#000000" d="M 100.554688 247.109375 L 121.125 247.109375 L 121.125 267.683594 L 100.554688 267.683594 Z M 100.554688 247.109375 " fill-opacity="1" fill-rule="nonzero"/></g></g><g clip-path="url(#7cdb6ebcbe)"><g clip-path="url(#7dcb9772f8)"><path fill="#000000" d="M 100.554688 272.933594 L 121.125 272.933594 L 121.125 293.507812 L 100.554688 293.507812 Z M 100.554688 272.933594 " fill-opacity="1" fill-rule="nonzero"/></g></g><g clip-path="url(#7ce36e28bc)"><g clip-path="url(#a349651fac)"><path fill="#000000" d="M 126.796875 247.109375 L 147.367188 247.109375 L 147.367188 267.683594 L 126.796875 267.683594 Z M 126.796875 247.109375 " fill-opacity="1" fill-rule="nonzero"/></g></g><g clip-path="url(#3baf528dd5)"><g clip-path="url(#2698c5af78)"><path fill="#000000" d="M 165.523438 272.933594 L 186.09375 272.933594 L 186.09375 293.507812 L 165.523438 293.507812 Z M 165.523438 272.933594 " fill-opacity="1" fill-rule="nonzero"/></g></g><g clip-path="url(#8734867d5d)"><g clip-path="url(#bb326570fa)"><path fill="#000000" d="M 186.09375 247.109375 L 206.667969 247.109375 L 206.667969 267.683594 L 186.09375 267.683594 Z M 186.09375 247.109375 " fill-opacity="1" fill-rule="nonzero"/></g></g><g clip-path="url(#c96fa33022)"><g clip-path="url(#e7f3ce5518)"><path fill="#000000" d="M 186.09375 221.515625 L 206.667969 221.515625 L 206.667969 242.089844 L 186.09375 242.089844 Z M 186.09375 221.515625 " fill-opacity="1" fill-rule="nonzero"/></g></g><g clip-path="url(#fcedb1f8ef)"><g clip-path="url(#f924e72227)"><path fill="#000000" d="M 227.253906 247.109375 L 247.824219 247.109375 L 247.824219 267.683594 L 227.253906 267.683594 Z M 227.253906 247.109375 " fill-opacity="1" fill-rule="nonzero"/></g></g><g clip-path="url(#b43846241b)"><g clip-path="url(#2b7785a60e)"><path fill="#000000" d="M 227.253906 221.515625 L 247.824219 221.515625 L 247.824219 242.089844 L 227.253906 242.089844 Z M 227.253906 221.515625 " fill-opacity="1" fill-rule="nonzero"/></g></g><g clip-path="url(#0062cd9ade)"><g clip-path="url(#9c8644648b)"><path fill="#000000" d="M 253.875 221.515625 L 274.445312 221.515625 L 274.445312 242.089844 L 253.875 242.089844 Z M 253.875 221.515625 " fill-opacity="1" fill-rule="nonzero"/></g></g><g clip-path="url(#4090f69a3c)"><g clip-path="url(#cfee9952f3)"><path fill="#000000" d="M 253.824219 247.109375 L 274.398438 247.109375 L 274.398438 267.683594 L 253.824219 267.683594 Z M 253.824219 247.109375 " fill-opacity="1" fill-rule="nonzero"/></g></g></svg>