<svg xmlns="http://www.w3.org/2000/svg" xmlns:xlink="http://www.w3.org/1999/xlink" width="500" zoomAndPan="magnify" viewBox="0 0 375 374.999991" height="500" preserveAspectRatio="xMidYMid meet" version="1.0"><defs><clipPath id="4a98beebf0"><path d="M 99.460938 99.460938 L 275.535156 99.460938 L 275.535156 275.535156 L 99.460938 275.535156 Z M 99.460938 99.460938 " clip-rule="nonzero"/></clipPath><clipPath id="4fb4e3ce9d"><path d="M 187.496094 99.460938 C 138.875 99.460938 99.460938 138.875 99.460938 187.496094 C 99.460938 236.117188 138.875 275.535156 187.496094 275.535156 C 236.117188 275.535156 275.535156 236.117188 275.535156 187.496094 C 275.535156 138.875 236.117188 99.460938 187.496094 99.460938 Z M 187.496094 99.460938 " clip-rule="nonzero"/></clipPath><clipPath id="f460eca5d3"><path d="M 37.5 37.5 L 337.5 37.5 L 337.5 337.5 L 37.5 337.5 Z M 37.5 37.5 " clip-rule="nonzero"/></clipPath><clipPath id="e03d1913e3"><path d="M 54.75 37.5 L 320.25 37.5 C 324.824219 37.5 329.210938 39.316406 332.449219 42.550781 C 335.683594 45.789062 337.5 50.175781 337.5 54.75 L 337.5 320.25 C 337.5 324.824219 335.683594 329.210938 332.449219 332.449219 C 329.210938 335.683594 324.824219 337.5 320.25 337.5 L 54.75 337.5 C 50.175781 337.5 45.789062 335.683594 42.550781 332.449219 C 39.316406 329.210938 37.5 324.824219 37.5 320.25 L 37.5 54.75 C 37.5 50.175781 39.316406 45.789062 42.550781 42.550781 C 45.789062 39.316406 50.175781 37.5 54.75 37.5 Z M 54.75 37.5 " clip-rule="nonzero"/></clipPath><clipPath id="3fb1360fce"><path d="M 130.324219 147.261719 L 244 147.261719 L 244 227.511719 L 130.324219 227.511719 Z M 130.324219 147.261719 " clip-rule="nonzero"/></clipPath></defs><rect x="-37.5" width="450" fill="#ffffff" y="-37.499999" height="449.999989" fill-opacity="1"/><rect x="-37.5" width="450" fill="#ffffff" y="-37.499999" height="449.999989" fill-opacity="1"/><g clip-path="url(#4a98beebf0)"><g clip-path="url(#4fb4e3ce9d)"><path stroke-linecap="butt" transform="matrix(0.75, 0, 0, 0.75, 99.46004, 99.459953)" fill="none" stroke-linejoin="miter" d="M 117.381413 0.00131204 C 52.553284 0.00131204 0.00119724 52.553399 0.00119724 117.381528 C 0.00119724 182.209657 52.553284 234.766952 117.381413 234.766952 C 182.209543 234.766952 234.766838 182.209657 234.766838 117.381528 C 234.766838 52.553399 182.209543 0.00131204 117.381413 0.00131204 Z M 117.381413 0.00131204 " stroke="#000000" stroke-width="20" stroke-opacity="1" stroke-miterlimit="4"/></g></g><g clip-path="url(#f460eca5d3)"><g clip-path="url(#e03d1913e3)"><path stroke-linecap="butt" transform="matrix(0.75, 0, 0, 0.75, 37.500002, 37.499998)" fill="none" stroke-linejoin="miter" d="M 22.999999 0.00000328333 L 377.000022 0.00000328333 C 383.098981 0.00000328333 388.947939 2.421878 393.265648 6.734379 C 397.578148 11.052087 400.000024 16.901046 400.000024 23.000005 L 400.000024 377.000028 C 400.000024 383.098987 397.578148 388.947945 393.265648 393.265654 C 388.947939 397.578154 383.098981 400.00003 377.000022 400.00003 L 22.999999 400.00003 C 16.90104 400.00003 11.052081 397.578154 6.734373 393.265654 C 2.421872 388.947945 -0.00000271667 383.098987 -0.00000271667 377.000028 L -0.00000271667 23.000005 C -0.00000271667 16.901046 2.421872 11.052087 6.734373 6.734379 C 11.052081 2.421878 16.90104 0.00000328333 22.999999 0.00000328333 Z M 22.999999 0.00000328333 " stroke="#000000" stroke-width="12" stroke-opacity="1" stroke-miterlimit="4"/></g></g><g clip-path="url(#3fb1360fce)"><path fill="#000000" d="M 242.632812 155.109375 C 244.324219 153.414062 244.324219 150.667969 242.632812 148.972656 C 240.9375 147.277344 238.1875 147.277344 236.492188 148.972656 L 170.246094 202.046875 L 138.15625 183.132812 C 136.460938 181.4375 133.714844 181.4375 132.019531 183.132812 C 130.324219 184.828125 130.324219 187.574219 132.019531 189.269531 L 170.246094 227.5 Z M 242.632812 155.109375 " fill-opacity="1" fill-rule="nonzero"/></g></svg>